# xmcd CD database file
#
# Track frame offsets:
#	150
#	18936
#	41082
#	59412
#	84825
#	106000
#	130678
#	153414
#	169065
#	195043
#	216892
#	238259
#
# Disc length: 3454 seconds
#
# Revision: 0
# Processed by: cddbd v1.5.2PL0 Copyright (c) Steve Scherf et al.
# Submitted via: CDex 1.70beta2
#
DISCID=8f0d7c0c
DTITLE=ウーファン(伍芳) - Jasmine Flower -中国歌物語-
DYEAR=2006
DGENRE=New Age
TTITLE0=茉莉花(Mo Li Hua)～Jasmine Flower～
TTITLE1=又見炊烟(You Jian Chui Yan)～里の秋～
TTITLE2=南泥湾(Nan Ni Wan)
TTITLE3=是情非情
TTITLE4=雪中蓮(Xue Zhong Lian)～Flower on Ice～
TTITLE5=佳人曲(Jia Run Qu)～Song for the Beauty～
TTITLE6=君心我心(Jun Xin Wo Xin)～あなたの心 私の心～
TTITLE7=夜来香(Yei Lai Xiang)
TTITLE8=茶馬古道(Cha Ma Gu Dao)
TTITLE9=美麗的神話
TTITLE10=芳草無情(Fang Cao Wu Qing)～無情な草の緑～
TTITLE11=弯弯的月亮(Wan wan de Yue Liang)～Crescent moon～
EXTD=YEAR: 2006
EXTT0=
EXTT1=
EXTT2=
EXTT3=
EXTT4=
EXTT5=
EXTT6=
EXTT7=
EXTT8=
EXTT9=
EXTT10=
EXTT11=
PLAYORDER=
